<svg id="Layer_1" data-name="Layer 1" xmlns="http://www.w3.org/2000/svg" viewBox="0 0 198.09 155.18"><defs><style>.cls-1{fill:#0f5609;}.cls-2{fill:#227715;}.cls-3,.cls-8{fill:#ede0d4;}.cls-3,.cls-4{stroke:#ede0d4;}.cls-3,.cls-4,.cls-5,.cls-6,.cls-7,.cls-9{stroke-miterlimit:10;}.cls-3,.cls-4,.cls-9{stroke-width:2px;}.cls-4{fill:none;}.cls-5{fill:#e6ccb2;}.cls-5,.cls-6,.cls-7{stroke:#000;}.cls-6{fill:#7f5539;}.cls-7{fill:#b08968;}.cls-9{fill:#29af22;stroke:#29af22;}</style></defs><polygon class="cls-1" points="132.06 19.18 111.2 147.18 156.06 146.18 132.06 19.18"/><polygon class="cls-2" points="149.06 5.18 130.61 146.68 170.44 147.18 149.06 5.18"/><polygon class="cls-2" points="164.06 16.18 150.52 146.68 184.06 147.18 164.06 16.18"/><line class="cls-3" x1="5.56" y1="136.68" x2="96.56" y2="17.68"/><line class="cls-4" x1="192.06" y1="136.18" x2="96.06" y2="17.18"/><polygon class="cls-5" points="97.9 1.03 19.06 147.18 181.56 147.18 97.9 1.03"/><polygon class="cls-6" points="96.94 29.88 71.05 147.18 121.87 147.18 96.94 29.88"/><path class="cls-5" d="M97.88,48.81l51.93,104.81S120,155.54,122.88,169,97.88,48.81,97.88,48.81Z" transform="translate(-0.94 -21.82)"/><path class="cls-7" d="M97.88,47.85,46,152.65S75.77,154.58,72.88,168,97.88,47.85,97.88,47.85Z" transform="translate(-0.94 -21.82)"/><polygon class="cls-6" points="197.51 127.68 196.56 133.68 195.77 138.68 194.51 146.68 189.51 146.68 188.66 138.68 188.14 133.68 187.51 127.68 197.51 127.68"/><polygon class="cls-8" points="196.56 133.68 195.77 138.68 188.66 138.68 188.14 133.68 196.56 133.68"/><polygon class="cls-6" points="10.56 128.68 9.69 134.18 8.9 139.18 7.56 147.68 2.56 147.68 1.67 139.18 1.14 134.18 0.56 128.68 10.56 128.68"/><polygon class="cls-8" points="9.69 134.18 8.9 139.18 1.67 139.18 1.14 134.18 9.69 134.18"/><rect class="cls-9" x="2.06" y="148.18" width="195" height="6" rx="3"/></svg>