<svg id="Layer_1" data-name="Layer 1" xmlns="http://www.w3.org/2000/svg" viewBox="0 0 92.67 79.7"><defs><style>.cls-1{fill:#fff;}</style></defs><path class="cls-1" d="M32.6,67.5a26.44,26.44,0,0,1,0-52.87A26.44,26.44,0,0,1,53.42,57.39,26.3,26.3,0,0,1,32.6,67.5Z" transform="translate(-4.19 -12.63)"/><path d="M32.64,16.63h0a24.44,24.44,0,0,1,0,48.87,24.18,24.18,0,0,1-15.06-5.21,24.44,24.44,0,0,1,15.1-43.66m0-4A28.44,28.44,0,1,0,50.18,18.7a28.38,28.38,0,0,0-17.54-6.07Z" transform="translate(-4.19 -12.63)"/><rect x="69.17" y="48.41" width="9.66" height="48.76" transform="translate(-33.13 73.42) rotate(-51.87)"/><path d="M57.89,54.64,95.46,84.12l-5.35,6.81L52.54,61.45l5.35-6.81m-.17-1.41-6.59,8.39L90.28,92.34,96.86,84,57.72,53.23Z" transform="translate(-4.19 -12.63)"/></svg>